<svg width="80" height="60" viewBox="0 0 80 60" fill="none" xmlns="http://www.w3.org/2000/svg">
<path d="M67.7235 4.97357C62.6235 2.67357 57.1568 0.973571 51.4401 0.0069042C51.3892 -0.00286941 51.3365 0.00342906 51.2893 0.0249286C51.2422 0.0464282 51.2028 0.0820653 51.1768 0.126904C50.4768 1.3569 49.6968 2.96024 49.1501 4.2269C43.0871 3.32103 36.9232 3.32103 30.8601 4.2269C30.2513 2.82311 29.5646 1.45432 28.8035 0.126904C28.7777 0.0815132 28.7386 0.0450701 28.6916 0.022438C28.6445 -0.000194139 28.5917 -0.00793907 28.5401 0.000237222C22.8268 0.966904 17.3601 2.6669 12.2568 4.97024C12.2129 4.98865 12.1757 5.02006 12.1501 5.06024C1.7768 20.3102 -1.06653 35.1836 0.330137 49.8702C0.334024 49.9062 0.345189 49.941 0.362954 49.9725C0.380718 50.004 0.404711 50.0316 0.433471 50.0536C6.48811 54.4616 13.2413 57.8196 20.4101 59.9869C20.4601 60.0023 20.5136 60.0022 20.5635 59.9868C20.6135 59.9713 20.6576 59.9411 20.6901 59.9002C22.2328 57.8371 23.5998 55.6483 24.7768 53.3569C24.7931 53.3256 24.8026 53.2911 24.8044 53.2558C24.8063 53.2205 24.8005 53.1852 24.7876 53.1524C24.7746 53.1195 24.7547 53.0898 24.7293 53.0653C24.7039 53.0408 24.6735 53.022 24.6401 53.0102C22.4868 52.1993 20.4004 51.2208 18.4001 50.0836C18.3642 50.063 18.3339 50.0339 18.312 49.9988C18.2901 49.9637 18.2772 49.9237 18.2746 49.8824C18.2719 49.8411 18.2796 49.7998 18.2969 49.7622C18.3141 49.7246 18.3404 49.6918 18.3735 49.6669C18.7935 49.3569 19.2135 49.0336 19.6135 48.7102C19.6495 48.6811 19.6928 48.6626 19.7388 48.6568C19.7847 48.6509 19.8313 48.6578 19.8735 48.6769C32.9635 54.5569 47.1401 54.5569 60.0768 48.6769C60.1191 48.6567 60.1662 48.6488 60.2128 48.6541C60.2593 48.6594 60.3035 48.6777 60.3401 48.7069C60.7401 49.0336 61.1568 49.3569 61.5801 49.6669C61.6135 49.6913 61.6403 49.7236 61.6581 49.7609C61.6759 49.7982 61.6842 49.8393 61.6822 49.8806C61.6802 49.9219 61.668 49.962 61.6467 49.9974C61.6254 50.0329 61.5957 50.0625 61.5601 50.0836C59.5668 51.2302 57.4935 52.2002 55.3168 53.0069C55.2834 53.019 55.2529 53.0382 55.2275 53.063C55.202 53.0878 55.1822 53.1178 55.1692 53.151C55.1563 53.1841 55.1506 53.2196 55.1525 53.2551C55.1543 53.2906 55.1638 53.3253 55.1801 53.3569C56.3801 55.6469 57.7535 57.8269 59.2635 59.8969C59.2949 59.9394 59.3386 59.9711 59.3887 59.9878C59.4388 60.0045 59.4929 60.0054 59.5435 59.9902C66.7246 57.829 73.4888 54.4695 79.5501 50.0536C79.5797 50.0329 79.6045 50.0061 79.6229 49.9751C79.6413 49.944 79.6529 49.9094 79.6568 49.8736C81.3235 32.8936 76.8635 18.1402 67.8268 5.0669C67.8046 5.02442 67.768 4.9913 67.7235 4.97357ZM26.7335 40.9269C22.7935 40.9269 19.5435 37.3636 19.5435 32.9936C19.5435 28.6202 22.7301 25.0602 26.7335 25.0602C30.7668 25.0602 33.9868 28.6502 33.9235 32.9936C33.9235 37.3669 30.7368 40.9269 26.7335 40.9269ZM53.3168 40.9269C49.3735 40.9269 46.1268 37.3636 46.1268 32.9936C46.1268 28.6202 49.3101 25.0602 53.3168 25.0602C57.3501 25.0602 60.5701 28.6502 60.5068 32.9936C60.5068 37.3669 57.3535 40.9269 53.3168 40.9269Z" fill="white"/>
</svg>
