<svg width="74" height="74" viewBox="0 0 74 74" fill="none" xmlns="http://www.w3.org/2000/svg">
<path fill-rule="evenodd" clip-rule="evenodd" d="M21.8835 0.553008C25.7935 0.373008 27.0402 0.333008 37.0002 0.333008C46.9602 0.333008 48.2068 0.376341 52.1135 0.553008C56.0202 0.729674 58.6868 1.35301 61.0202 2.25634C63.4635 3.17967 65.6802 4.62301 67.5135 6.48967C69.3802 8.31967 70.8202 10.533 71.7402 12.9797C72.6468 15.313 73.2668 17.9797 73.4468 21.8797C73.6268 25.7963 73.6668 27.043 73.6668 36.9997C73.6668 46.9597 73.6235 48.2063 73.4468 52.1163C73.2702 56.0163 72.6468 58.683 71.7402 61.0163C70.8201 63.4633 69.3778 65.6803 67.5135 67.513C65.6802 69.3797 63.4635 70.8197 61.0202 71.7397C58.6868 72.6463 56.0202 73.2663 52.1202 73.4463C48.2068 73.6263 46.9602 73.6663 37.0002 73.6663C27.0402 73.6663 25.7935 73.623 21.8835 73.4463C17.9835 73.2697 15.3168 72.6463 12.9835 71.7397C10.5366 70.8195 8.31956 69.3772 6.48683 67.513C4.62143 65.6819 3.17788 63.466 2.25683 61.0197C1.3535 58.6863 0.733496 56.0197 0.553496 52.1197C0.373496 48.203 0.333496 46.9563 0.333496 36.9997C0.333496 27.0397 0.376829 25.793 0.553496 21.8863C0.730163 17.9797 1.3535 15.313 2.25683 12.9797C3.17924 10.5333 4.62389 8.31738 6.49016 6.48634C8.3203 4.62134 10.5351 3.17782 12.9802 2.25634C15.3135 1.35301 17.9802 0.733008 21.8802 0.553008H21.8835ZM51.8168 7.15301C47.9502 6.97634 46.7902 6.93967 37.0002 6.93967C27.2102 6.93967 26.0502 6.97634 22.1835 7.15301C18.6068 7.31634 16.6668 7.91301 15.3735 8.41634C13.6635 9.08301 12.4402 9.87301 11.1568 11.1563C9.94031 12.3398 9.0041 13.7806 8.41683 15.373C7.9135 16.6663 7.31683 18.6063 7.1535 22.183C6.97683 26.0497 6.94016 27.2097 6.94016 36.9997C6.94016 46.7897 6.97683 47.9497 7.1535 51.8163C7.31683 55.393 7.9135 57.333 8.41683 58.6263C9.0035 60.2163 9.94016 61.6597 11.1568 62.843C12.3402 64.0597 13.7835 64.9963 15.3735 65.583C16.6668 66.0863 18.6068 66.683 22.1835 66.8463C26.0502 67.023 27.2068 67.0597 37.0002 67.0597C46.7935 67.0597 47.9502 67.023 51.8168 66.8463C55.3935 66.683 57.3335 66.0863 58.6268 65.583C60.3368 64.9163 61.5602 64.1263 62.8435 62.843C64.0602 61.6597 64.9968 60.2163 65.5835 58.6263C66.0868 57.333 66.6835 55.393 66.8468 51.8163C67.0235 47.9497 67.0602 46.7897 67.0602 36.9997C67.0602 27.2097 67.0235 26.0497 66.8468 22.183C66.6835 18.6063 66.0868 16.6663 65.5835 15.373C64.9168 13.663 64.1268 12.4397 62.8435 11.1563C61.6599 9.93991 60.2192 9.00371 58.6268 8.41634C57.3335 7.91301 55.3935 7.31634 51.8168 7.15301ZM32.3168 48.303C34.9324 49.3918 37.8448 49.5387 40.5566 48.7187C43.2684 47.8988 45.6115 46.1627 47.1855 43.8071C48.7596 41.4516 49.467 38.6226 49.187 35.8034C48.907 32.9841 47.6568 30.3496 45.6502 28.3497C44.3709 27.0713 42.8242 26.0924 41.1213 25.4835C39.4183 24.8746 37.6016 24.6509 35.8018 24.8284C34.002 25.0059 32.264 25.5803 30.7128 26.5101C29.1617 27.44 27.836 28.7022 26.8312 30.2058C25.8264 31.7095 25.1675 33.4173 24.9019 35.2062C24.6363 36.9951 24.7707 38.8206 25.2953 40.5514C25.8199 42.2821 26.7218 43.875 27.9359 45.2154C29.15 46.5558 30.6462 47.6103 32.3168 48.303ZM23.6735 23.673C25.4236 21.9229 27.5012 20.5347 29.7878 19.5875C32.0744 18.6404 34.5252 18.1529 37.0002 18.1529C39.4752 18.1529 41.9259 18.6404 44.2125 19.5875C46.4991 20.5347 48.5767 21.9229 50.3268 23.673C52.0769 25.4231 53.4651 27.5007 54.4123 29.7873C55.3594 32.0739 55.8469 34.5247 55.8469 36.9997C55.8469 39.4747 55.3594 41.9254 54.4123 44.212C53.4651 46.4986 52.0769 48.5763 50.3268 50.3263C46.7924 53.8608 41.9986 55.8464 37.0002 55.8464C32.0017 55.8464 27.2079 53.8608 23.6735 50.3263C20.139 46.7919 18.1534 41.9981 18.1534 36.9997C18.1534 32.0012 20.139 27.2075 23.6735 23.673ZM60.0268 20.9597C60.4605 20.5506 60.8077 20.0586 61.0478 19.5129C61.288 18.9672 61.4162 18.3789 61.4249 17.7828C61.4336 17.1866 61.3226 16.5948 61.0984 16.0424C60.8743 15.4899 60.5416 14.988 60.12 14.5665C59.6985 14.1449 59.1966 13.8122 58.6441 13.5881C58.0917 13.3639 57.4999 13.2529 56.9037 13.2616C56.3076 13.2703 55.7193 13.3985 55.1736 13.6387C54.6279 13.8788 54.1359 14.226 53.7268 14.6597C52.9312 15.5031 52.4956 16.6234 52.5125 17.7828C52.5294 18.9421 52.9975 20.0493 53.8173 20.8691C54.6372 21.689 55.7444 22.1571 56.9037 22.174C58.0631 22.1909 59.1834 21.7553 60.0268 20.9597Z" fill="white"/>
</svg>
