<svg width="32" height="26" viewBox="0 0 32 26" fill="none" xmlns="http://www.w3.org/2000/svg">
<path fill-rule="evenodd" clip-rule="evenodd" d="M0 9C0 8.73478 0.105357 8.48043 0.292893 8.29289C0.48043 8.10536 0.734784 8 1 8H23.616C23.8812 8 24.1356 8.10536 24.3231 8.29289C24.5106 8.48043 24.616 8.73478 24.616 9C24.616 9.26522 24.5106 9.51957 24.3231 9.70711C24.1356 9.89464 23.8812 10 23.616 10H1C0.734784 10 0.48043 9.89464 0.292893 9.70711C0.105357 9.51957 0 9.26522 0 9ZM0 1C0 0.734784 0.105357 0.48043 0.292893 0.292893C0.48043 0.105357 0.734784 0 1 0H31C31.2652 0 31.5196 0.105357 31.7071 0.292893C31.8946 0.48043 32 0.734784 32 1C32 1.26522 31.8946 1.51957 31.7071 1.70711C31.5196 1.89464 31.2652 2 31 2H1C0.734784 2 0.48043 1.89464 0.292893 1.70711C0.105357 1.51957 0 1.26522 0 1ZM0 17C0 16.7348 0.105357 16.4804 0.292893 16.2929C0.48043 16.1054 0.734784 16 1 16H31C31.2652 16 31.5196 16.1054 31.7071 16.2929C31.8946 16.4804 32 16.7348 32 17C32 17.2652 31.8946 17.5196 31.7071 17.7071C31.5196 17.8946 31.2652 18 31 18H1C0.734784 18 0.48043 17.8946 0.292893 17.7071C0.105357 17.5196 0 17.2652 0 17ZM0 25C0 24.7348 0.105357 24.4804 0.292893 24.2929C0.48043 24.1054 0.734784 24 1 24H23.616C23.8812 24 24.1356 24.1054 24.3231 24.2929C24.5106 24.4804 24.616 24.7348 24.616 25C24.616 25.2652 24.5106 25.5196 24.3231 25.7071C24.1356 25.8946 23.8812 26 23.616 26H1C0.734784 26 0.48043 25.8946 0.292893 25.7071C0.105357 25.5196 0 25.2652 0 25Z" fill="white"/>
</svg>
